:SAMPLES-PER-SECOND 30
:FULLY-SPECIFIED
:DEGREES
804
root  0.687346 40.0756 1.03843 0.871918 29.4031 0.602936
RightUpLeg  -1.48948 -6.32153 -1.75835
RightLeg  8.06713 8.91872 -0.00852155
RightFoot  -5.58822 0.0917102 -2.5823
RightToes  -1.74624e-010 0 -3.6325e-017
Spine  1.67364 0.532956 8.94205
Spine1  -1.29936 2.1797 -9.35715
HEad  -13.843 -37.9496 13.0486
LeftShoulder1  0.420155 2.20291 -26.1014
LeftArm  -0.0256773 8.33392 -38.3701
LeftForeArm  24.3348 -20.4013 -4.15985
LeftHand  -0.0373315 6.49837 -0.193646
RightShoulder  -0.031427 -8.1296 -8.81454
RightArm  -111.413 46.0157 -3.491
RightForeArm  24.8002 40.632 7.97168
RightHand  -2.28006 13.0861 -14.6114
LeftUpLeg  1.20732 6.21203 2.17846
LeftLeg  5.74222 7.14655 0.936934
LeftFoot  -4.78915 0.00305872 0.501546
LeftToes  2.27646e-009 -8.13696e-011 -1.44715e-011
805
root  0.699569 40.0895 1.0651 0.674713 28.5149 0.5914
RightUpLeg  -1.2296 -6.21563 -1.71361
RightLeg  7.82154 9.68896 -0.088232
RightFoot  -5.45716 0.095353 -2.58679
RightToes  -1.74624e-010 0 -3.6325e-017
Spine  1.79035 1.0356 9.57843
Spine1  -1.32333 2.8304 -10.1893
HEad  -13.1239 -37.0565 12.8773
LeftShoulder1  0.496876 1.96118 -26.0103
LeftArm  -1.15221 7.25538 -38.425
LeftForeArm  26.0648 -17.5719 -5.0344
LeftHand  -0.0335544 6.61201 0.214481
RightShoulder  -0.0281567 -8.36025 -8.9307
RightArm  -117.68 50.7726 -0.79754
RightForeArm  11.1826 40.5856 8.88258
RightHand  -3.07103 18.1536 -15.4142
LeftUpLeg  1.84537 6.37869 2.24217
LeftLeg  5.22337 7.77008 0.831513
LeftFoot  -4.72572 0.0115272 0.377143
LeftToes  2.27646e-009 -8.13696e-011 -1.44715e-011
806
root  0.757821 40.0968 1.09539 0.430054 27.2449 0.469849
RightUpLeg  -1.07546 -6.05136 -1.6267
RightLeg  7.75867 10.7796 -0.118283
RightFoot  -5.31849 0.0978 -2.59268
RightToes  -1.74624e-010 0 -3.6325e-017
Spine  1.71444 1.40955 9.62346
Spine1  -1.1469 3.13168 -9.70445
HEad  -12.3777 -35.3753 12.3507
LeftShoulder1  0.459698 2.07195 -25.9054
LeftArm  -3.93328 7.25299 -38.9668
LeftForeArm  29.2106 -15.251 -5.58569
LeftHand  -0.040097 6.48539 -0.45365
RightShoulder  0.0059471 -7.87704 -9.73246
RightArm  -105.851 53.6619 -0.298479
RightForeArm  15.7733 42.0403 9.05209
RightHand  -2.173 14.8981 -12.7711
LeftUpLeg  2.46038 6.47217 2.26323
LeftLeg  4.91497 9.15944 0.896279
LeftFoot  -4.70998 0.0122922 0.377333
LeftToes  2.27646e-009 -8.13696e-011 -1.44715e-011
807
root  0.840286 40.0873 1.11288 0.185181 25.9525 0.362854
RightUpLeg  -0.984844 -5.96243 -1.62371
RightLeg  7.85952 11.9805 -0.0694903
RightFoot  -5.36076 0.102322 -2.64832
RightToes  -1.74624e-010 0 -3.6325e-017
Spine  1.65088 1.3917 9.62819
Spine1  -0.7957 3.04807 -9.18786
HEad  -11.924 -33.6404 11.8641
LeftShoulder1  0.395524 2.27248 -25.9214
LeftArm  -6.00805 8.2977 -39.0893
LeftForeArm  30.8872 -14.2151 -5.54268
LeftHand  -0.0504413 6.39669 -1.55563
RightShoulder  0.0304138 -6.90146 -10.5877
RightArm  -86.9476 55.9302 -3.38921
RightForeArm  25.4819 44.568 9.26242
RightHand  -1.56307 11.7539 -10.955
LeftUpLeg  2.86812 6.67204 2.29838
LeftLeg  5.07748 10.2176 0.895859
LeftFoot  -4.95124 0.00677892 0.480775
LeftToes  2.27646e-009 -8.13696e-011 -1.44715e-011
808
root  0.903331 40.0613 1.1341 -0.0984192 24.8288 0.0561523
RightUpLeg  -0.982117 -5.63994 -1.31826
RightLeg  8.05643 12.7783 -0.103064
RightFoot  -5.41395 0.101182 -2.64984
RightToes  -1.74624e-010 0 -3.6325e-017
Spine  1.38761 1.43704 10.5153
Spine1  0.185178 3.25086 -9.74327
HEad  -12.124 -32.5509 12.5361
LeftShoulder1  0.404395 2.23371 -25.6166
LeftArm  -6.29403 9.15104 -39.0974
LeftForeArm  31.1273 -14.0542 -5.51978
LeftHand  -0.0588098 6.75394 -1.71166
RightShoulder  0.0699879 -6.35002 -12.2869
RightArm  -67.8724 56.9184 -8.4232
RightForeArm  31.6692 50.2147 11.0623
RightHand  -1.32762 11.2243 -9.65335
LeftUpLeg  2.93487 7.08973 2.61825
LeftLeg  5.80305 10.8245 0.929025
LeftFoot  -5.42106 0.00791744 0.487333
LeftToes  2.27646e-009 -8.13696e-011 -1.44715e-011
809
root  0.97695 40.0434 1.15366 -0.349518 24.2357 0.0148315
RightUpLeg  -0.880402 -5.61401 -1.36301
RightLeg  8.39265 13.3335 -0.0552534
RightFoot  -5.57539 0.10092 -2.69954
RightToes  -1.74624e-010 0 -3.6325e-017
Spine  1.58537 1.57589 11.2773
Spine1  0.897077 3.61877 -10.4532
HEad  -12.9816 -31.5509 13.1115
LeftShoulder1  0.324456 2.48144 -25.5138
LeftArm  -6.45962 9.33455 -39.135
LeftForeArm  31.5735 -13.9827 -5.50271
LeftHand  -0.0525706 6.72387 -1.40071
RightShoulder  0.0884672 -6.18883 -13.2304
RightArm  -54.8808 56.9639 -14.128
RightForeArm  45.4534 58.9437 14.7402
RightHand  -1.21955 11.9282 -8.55123
LeftUpLeg  3.17368 7.20681 2.59568
LeftLeg  6.18697 11.3367 1.02347
LeftFoot  -5.63491 0.00726918 0.53219
LeftToes  2.27646e-009 -8.13696e-011 -1.44715e-011
810
root  1.004 40.0273 1.1839 -0.234894 24.6038 -0.152466
RightUpLeg  -1.02111 -5.57164 -1.20189
RightLeg  8.48703 12.8923 -0.0639594
RightFoot  -5.6776 0.091304 -2.61704
RightToes  -1.74624e-010 0 -3.6325e-017
Spine  1.7309 1.67748 11.5569
Spine1  1.07074 3.80745 -10.6866
HEad  -13.9701 -31.9215 13.6195
LeftShoulder1  0.351627 2.39632 -25.5277
LeftArm  -5.98258 10.1255 -39.0549
LeftForeArm  30.5183 -15.0604 -5.20409
LeftHand  -0.0507477 6.73214 -1.09366
RightShoulder  0.0915413 -6.26638 -13.2588
RightArm  -46.9983 55.3615 -18.8247
RightForeArm  60.476 67.376 20.211
RightHand  -1.29797 13.7257 -8.31122
LeftUpLeg  2.70089 7.30629 2.74075
LeftLeg  6.75426 10.9758 1.12959
LeftFoot  -5.80353 0.00260106 0.665617
LeftToes  2.27646e-009 -8.13696e-011 -1.44715e-011
811
root  1.03672 40.0156 1.21678 -0.0568848 25.5913 -0.300751
RightUpLeg  -1.0931 -5.67352 -1.1325
RightLeg  8.49428 12.0019 -0.0271373
RightFoot  -5.81616 0.0863271 -2.60422
RightToes  -1.74624e-010 0 -3.6325e-017
Spine  1.72252 1.54018 11.3288
Spine1  1.29373 3.65174 -10.4458
HEad  -13.5668 -31.94 12.6793
LeftShoulder1  0.340757 2.42802 -25.4622
LeftArm  -5.33949 11.452 -39.1594
LeftForeArm  28.8463 -16.9365 -4.64708
LeftHand  -0.0491535 6.44048 -1.36689
RightShoulder  0.101595 -6.54634 -13.3059
RightArm  -44.0776 52.8036 -19.3419
RightForeArm  59.9319 69.9944 24.0203
RightHand  -1.5412 17.1775 -8.32714
LeftUpLeg  2.10633 7.16132 2.78709
LeftLeg  7.26309 10.1643 1.29925
LeftFoot  -6.00457 0.00273421 0.701811
LeftToes  2.27646e-009 -8.13696e-011 -1.44715e-011
812
root  1.0519 39.9983 1.24521 0.0482788 26.9669 -0.506592
RightUpLeg  -1.12531 -5.78035 -1.00672
RightLeg  8.58278 10.7025 0.0332051
RightFoot  -5.98944 0.0809863 -2.59818
RightToes  -1.74624e-010 0 -3.6325e-017
Spine  1.63364 1.19501 10.3679
Spine1  1.81204 3.14556 -9.35892
HEad  -13.1044 -30.5597 11.819
LeftShoulder1  0.253236 2.71217 -25.762
LeftArm  -4.37517 12.7261 -39.0825
LeftForeArm  26.9511 -19.2028 -4.07598
LeftHand  -0.0508635 6.58357 -1.18211
RightShoulder  0.0673267 -6.71548 -11.9538
RightArm  -46.7797 49.0894 -17.626
RightForeArm  54.0293 68.5031 22.7716
RightHand  -1.46401 14.952 -8.77368
LeftUpLeg  1.42628 7.04034 2.96723
LeftLeg  7.90378 8.90198 1.40185
LeftFoot  -6.29108 0.0103697 0.624767
LeftToes  2.27646e-009 -8.13696e-011 -1.44715e-011
813
root  1.07855 39.9747 1.27186 0.0369568 28.4263 -0.573486
RightUpLeg  -0.928667 -6.11384 -1.14191
RightLeg  8.64932 9.58334 0.230124
RightFoot  -6.30274 0.0672983 -2.49924
RightToes  -1.74624e-010 0 -3.6325e-017
Spine  2.19509 1.07681 9.66109
Spine1  1.63269 2.92838 -8.62949
HEad  -12.7291 -28.5324 9.93902
LeftShoulder1  0.228818 2.79074 -25.8741
LeftArm  -3.15795 13.5268 -39.0962
LeftForeArm  25.5622 -20.6008 -3.87262
LeftHand  -0.036622 6.04145 -0.689233
RightShoulder  -0.0186997 -6.77723 -8.85718
RightArm  -53.0136 44.949 -16.3122
RightForeArm  49.9607 63.9918 18.1513
RightHand  -1.16292 10.9705 -8.59956
LeftUpLeg  0.923967 6.76646 2.97974
LeftLeg  8.56137 7.72976 1.50309
LeftFoot  -6.55541 0.0103724 0.696775
LeftToes  2.27646e-009 -8.13696e-011 -1.44715e-011
